<svg width="30" height="31" viewBox="0 0 30 31" fill="none" xmlns="http://www.w3.org/2000/svg">
<path d="M15 18C17.7614 18 20 15.7614 20 13C20 10.2386 17.7614 8 15 8C12.2386 8 10 10.2386 10 13C10 15.7614 12.2386 18 15 18Z" stroke="#213264" stroke-width="1.875" stroke-linecap="round" stroke-linejoin="round"/>
<path d="M8.4375 20.5C9.49242 21.4163 10.7273 22.1018 12.0629 22.5125C13.3985 22.9231 14.8052 23.0499 16.1927 22.8845C17.5802 22.7192 18.9178 22.2655 20.1195 21.5525C21.3212 20.8395 22.3605 19.8831 23.1706 18.7446C23.9807 17.6061 24.5437 16.3107 24.8234 14.9417C25.1031 13.5727 25.0933 12.1603 24.7947 10.7952C24.4961 9.43022 23.9153 8.14275 23.0896 7.01554C22.2638 5.88833 21.2114 4.94631 20 4.25" stroke="#213264" stroke-width="1.875" stroke-linecap="round" stroke-linejoin="round"/>
<path d="M15 23V28" stroke="#213264" stroke-width="1.875" stroke-linecap="round" stroke-linejoin="round"/>
<path d="M10 28H20" stroke="#213264" stroke-width="1.875" stroke-linecap="round" stroke-linejoin="round"/>
</svg>
